<?xml version="1.0" encoding="utf-8"?>
<!-- Generator: Adobe Illustrator 16.0.0, SVG Export Plug-In . SVG Version: 6.00 Build 0)  -->
<!DOCTYPE svg PUBLIC "-//W3C//DTD SVG 1.1//EN" "http://www.w3.org/Graphics/SVG/1.1/DTD/svg11.dtd">
<svg version="1.1" id="Layer_1" xmlns="http://www.w3.org/2000/svg" xmlns:xlink="http://www.w3.org/1999/xlink" x="0px" y="0px"
	 width="512px" height="512px" viewBox="0 0 512 512" enable-background="new 0 0 512 512" xml:space="preserve">
<g>
	<path fill-rule="evenodd" clip-rule="evenodd" fill="#0E2433" d="M64.89,511.404c-2.529-0.668-5.052-1.359-7.588-2.001
		c-24.836-6.285-43.042-27.921-44.917-53.397c-0.036-0.495-0.055-0.993-0.072-1.488c-0.308-8.683,3.391-12.624,12.033-12.634
		c27.676-0.026,55.352-0.01,83.028-0.011c9.612,0,19.224,0,28.835,0c1.617,0,3.235,0,5.312,0c0-8.573,0.176-16.652-0.145-24.714
		c-0.065-1.649-1.774-3.43-3.087-4.804c-11.573-12.131-22.491-24.781-31.54-38.953c-17.83-27.923-29.197-58.222-32.892-91.19
		c-1.215-10.837-1.722-21.797-1.843-32.708c-0.268-24.027,0.163-48.062-0.204-72.087c-0.147-9.633,3.786-14.128,14.343-14.108
		c103.08,0.203,206.162,0.122,309.241,0.123c1.159,0,2.32-0.024,3.48,0.006c7.153,0.191,10.873,3.958,10.991,11.234
		c0.069,4.291,0.013,8.585,0.013,13.295c1.656,0.12,3.079,0.307,4.499,0.311c10.11,0.029,20.222-0.098,30.328,0.046
		c25.939,0.37,47.411,17.328,53.15,42.514c3.913,17.168,0.761,33.789-7.174,49.164c-15.717,30.451-41.042,46.256-75.385,47.378
		c-2.648,0.088-5.313-0.094-7.951,0.081c-8.414,0.559-14.573,7.23-14.351,15.415c0.217,7.912,6.584,14.162,14.824,14.446
		c3.642,0.124,7.311-0.155,10.931,0.149c4.948,0.417,8.637,4.374,8.967,9.122c0.323,4.689-2.932,9.612-7.762,10.095
		c-10.975,1.097-21.941,1.104-31.509-5.742c-2.664-1.906-5.068-4.172-7.561-6.243c-5.019,7.319-9.569,14.84-15,21.661
		c-7.213,9.061-15.022,17.657-22.778,26.271c-2.04,2.267-2.987,4.447-2.902,7.495c0.201,7.074,0.065,14.16,0.065,21.743
		c2.428,0,4.372,0,6.316,0c36.46,0,72.919,0.182,109.377-0.127c9.213-0.077,14.517,4.013,13.472,14.76
		c-2.665,27.428-22.586,49.165-49.773,53.949c-0.94,0.164-1.829,0.626-2.742,0.949c-44.75,0-89.499,0-134.248,0
		c-0.626-0.487-1.233-0.999-1.882-1.454c-4.118-2.888-5.804-6.954-4.581-11.09c1.271-4.298,4.775-6.957,9.621-7.235
		c1.487-0.085,2.981-0.031,4.472-0.031c39.759,0,79.518,0.129,119.277-0.062c16.997-0.081,29.229-8.293,36.714-23.512
		c0.909-1.85,1.366-3.918,2.083-6.025c-138.559,0-276.569,0-414.888,0c0.437,1.542,0.674,2.668,1.07,3.735
		c5.779,15.6,20.511,25.811,37.665,25.841c39.924,0.067,79.849,0.021,119.773,0.025c1.656,0.001,3.333-0.11,4.964,0.098
		c4.353,0.554,7.295,2.956,8.612,7.17c1.205,3.853-0.239,7.806-3.736,10.521c-0.887,0.688-1.797,1.347-2.696,2.019
		C154.389,511.404,109.639,511.404,64.89,511.404z M390.149,183.512c-99.869,0-199.023,0-298.488,0c0,1.481,0,2.621,0,3.762
		c0.015,24.025-0.182,48.053,0.105,72.076c0.292,24.419,5.354,47.934,14.48,70.599c10.491,26.061,26.413,48.425,45.874,68.479
		c2.499,2.573,4.872,3.763,8.54,3.754c50.536-0.128,101.077-0.411,151.607,0.185c10.24,0.121,16.905-2.95,23.68-10.429
		c35.21-38.871,53.695-84.149,54.166-136.636c0.201-22.532,0.035-45.068,0.036-67.602
		C390.149,186.402,390.149,185.106,390.149,183.512z M403.366,307.67c4.613,0,8.391,0.057,12.165-0.02
		c2.643-0.053,5.317-0.064,7.92-0.473c30.369-4.742,51.679-26.447,55.845-56.875c3.696-27.005-16.798-43.437-36.901-42.364
		c-9.245,0.494-18.539,0.073-27.811,0.096c-1.437,0.004-2.874,0.166-4.615,0.273C409.323,241.56,412.26,274.743,403.366,307.67z
		 M320.36,422.162c-53.271,0-106.01,0-158.736,0c0,6.698,0,13.056,0,19.375c53.095,0,105.835,0,158.736,0
		C320.36,434.962,320.36,428.722,320.36,422.162z"/>
	<path fill-rule="evenodd" clip-rule="evenodd" fill="#F37438" d="M176.266,2.253c10.081,3.715,13.329,12.863,16.451,21.66
		c5.728,16.147,2.352,31.227-6.855,45.265c-1.451,2.214-3.106,4.298-4.504,6.546c-7.64,12.286-7.643,24.618-0.068,36.944
		c1.04,1.691,2.32,3.263,3.154,5.047c1.942,4.162,0.531,8.999-3.126,11.422c-3.686,2.444-8.798,2.042-11.726-1.487
		c-6.235-7.514-10.256-16.119-11.841-25.831c-2.384-14.606,1.933-27.454,10.315-39.159c5.328-7.439,9.19-15.188,8.716-24.72
		c-0.361-7.264-3.239-13.373-7.124-19.253c-4.532-6.861-3.176-11.639,4.097-15.229c0.566-0.28,1.015-0.797,1.518-1.204
		C175.603,2.253,175.935,2.253,176.266,2.253z"/>
	<path fill-rule="evenodd" clip-rule="evenodd" fill="#F37438" d="M240.904,2.253c10.081,3.715,13.33,12.863,16.45,21.66
		c5.729,16.147,2.353,31.227-6.854,45.265c-1.452,2.214-3.107,4.298-4.504,6.546c-7.64,12.286-7.643,24.618-0.069,36.944
		c1.04,1.691,2.321,3.263,3.154,5.047c1.942,4.162,0.53,8.999-3.126,11.422c-3.686,2.444-8.798,2.042-11.726-1.487
		c-6.235-7.514-10.255-16.119-11.841-25.831c-2.384-14.606,1.932-27.454,10.315-39.159c5.327-7.439,9.19-15.188,8.716-24.72
		c-0.361-7.264-3.239-13.373-7.124-19.253c-4.532-6.861-3.176-11.639,4.097-15.229c0.565-0.28,1.014-0.797,1.517-1.204
		C240.242,2.253,240.573,2.253,240.904,2.253z"/>
	<path fill-rule="evenodd" clip-rule="evenodd" fill="#F37438" d="M305.543,2.253c10.08,3.715,13.33,12.863,16.45,21.66
		c5.729,16.147,2.352,31.227-6.854,45.265c-1.453,2.214-3.107,4.298-4.504,6.546c-7.641,12.286-7.644,24.618-0.069,36.944
		c1.04,1.691,2.322,3.263,3.154,5.047c1.942,4.162,0.531,8.999-3.127,11.422c-3.685,2.444-8.797,2.042-11.726-1.487
		c-6.234-7.514-10.255-16.119-11.841-25.831c-2.385-14.606,1.935-27.454,10.314-39.159c5.328-7.439,9.191-15.188,8.717-24.72
		c-0.361-7.264-3.238-13.371-7.124-19.253c-4.531-6.861-3.176-11.639,4.098-15.229c0.565-0.28,1.014-0.797,1.517-1.204
		C304.88,2.253,305.212,2.253,305.543,2.253z"/>
	<path fill-rule="evenodd" clip-rule="evenodd" fill="#0E2433" d="M237.921,511.404c-0.894-0.667-1.798-1.323-2.682-2.004
		c-4.963-3.835-5.571-10.32-1.384-14.688c3.925-4.096,10.157-4.096,14.089-0.001c4.188,4.361,3.583,10.845-1.378,14.688
		c-0.881,0.683-1.785,1.338-2.678,2.006C241.811,512.046,239.545,512.156,237.921,511.404z"/>
	<path fill-rule="evenodd" clip-rule="evenodd" fill="#F37438" d="M172.694,308.262c0.64-16.601,5.871-29.488,16.338-40.096
		c9.071-9.19,18.211-18.315,27.398-27.392c10.606-10.479,23.518-16.315,38.324-16.165c25.079,0.257,45.811,15.744,52.237,40.213
		c5.217,19.851-0.073,37.321-14.075,52.061c-9.006,9.481-18.399,18.597-27.715,27.777c-10.491,10.342-23.299,16.1-37.899,15.975
		c-25.877-0.222-46.224-16.386-52.551-40.452C173.584,315.739,173.169,311.098,172.694,308.262z M206.306,335.532
		c2.338,1.384,4.046,2.717,5.977,3.493c13.776,5.524,26.875,4.228,37.957-5.836c10.782-9.79,20.861-20.375,31.014-30.837
		c6.262-6.452,9.159-14.575,9.114-23.483c-0.021-3.893,0.41-8.202-2.752-12.054c-1.063,1.236-1.975,2.127-2.693,3.152
		c-10.822,15.474-25.533,25.604-43.057,32.248C225.844,308.291,214.337,319.523,206.306,335.532z M275.536,249.533
		c-2.82-1.513-4.994-3.061-7.412-3.915c-13.959-4.929-26.817-2.89-37.683,7.346c-9.989,9.41-19.521,19.306-29.168,29.074
		c-4.629,4.688-7.752,10.348-9.017,16.805c-1.261,6.437-1.519,12.917,1.595,20.189c1.546-1.963,2.552-3.148,3.46-4.407
		c7.58-10.486,16.919-19.037,28.357-25.103c4.795-2.543,9.927-4.46,14.933-6.604C256.096,276.278,267.682,265.56,275.536,249.533z"
		/>
</g>
</svg>
