<?xml version="1.0" encoding="utf-8"?>
<!-- Generator: Adobe Illustrator 16.0.0, SVG Export Plug-In . SVG Version: 6.00 Build 0)  -->
<!DOCTYPE svg PUBLIC "-//W3C//DTD SVG 1.1//EN" "http://www.w3.org/Graphics/SVG/1.1/DTD/svg11.dtd">
<svg version="1.1" id="Layer_1" xmlns="http://www.w3.org/2000/svg" xmlns:xlink="http://www.w3.org/1999/xlink" x="0px" y="0px"
	 width="512px" height="512px" viewBox="0 0 512 512" enable-background="new 0 0 512 512" xml:space="preserve">
<path fill-rule="evenodd" clip-rule="evenodd" fill="#0B2333" d="M401.767,2.698c6.475,3.529,9.298,9.305,10.542,16.32
	c1.494,8.433,3.543,16.768,5.057,25.2c0.496,2.762,1.71,3.497,4.268,3.452c6.435-0.109,12.873-0.124,19.307-0.008
	c13.706,0.248,21.4,7.91,21.594,21.601c0.133,9.569,0.121,19.143,0.004,28.713c-0.169,14.064-7.816,21.577-21.867,21.688
	c-7.382,0.059-7.429,0.053-8.531,7.457c-1.407,9.457-2.845,18.913-3.968,28.404c-0.187,1.57,0.706,3.852,1.896,4.897
	c4.918,4.313,6.932,9.675,6.056,15.933c-4.935,35.263-10.016,70.506-15.043,105.756c-5.47,38.35-10.938,76.699-16.4,115.051
	c-1.695,11.913-3.273,23.845-5.092,35.739c-1.007,6.579-4.348,11.546-10.611,14.519c-1.406,0.667-2.743,2.743-3.005,4.351
	c-1.809,11.062-3.128,22.203-4.978,33.257c-2.471,14.768-13.517,24.523-28.448,24.558c-64.192,0.148-128.387,0.15-192.58,0.001
	c-15.122-0.035-26.201-10.045-28.565-25.027c-1.721-10.91-3.12-21.87-4.908-32.768c-0.264-1.607-1.552-3.706-2.94-4.357
	c-6.674-3.135-9.836-8.524-10.822-15.47c-10.664-75.074-21.3-150.153-31.954-225.23c-1.413-9.956-2.906-19.9-4.311-29.856
	c-0.917-6.5,0.917-11.953,5.938-16.43c1.197-1.066,2.144-3.328,1.956-4.889c-1.296-10.8-2.995-21.551-4.392-32.34
	c-0.348-2.688-1.458-3.493-4.12-3.608C54.749,118.699,50,113.675,50,92.598c0.001-7.922-0.084-15.844,0.026-23.764
	C50.209,55.73,57.8,48.044,70.984,47.676c6.431-0.18,12.874-0.149,19.305,0.009c2.929,0.071,4.372-0.641,4.93-3.878
	c1.427-8.276,3.531-16.435,4.986-24.708c1.233-7.003,4.007-12.792,10.411-16.402C207.666,2.698,304.716,2.698,401.767,2.698z
	 M371.517,448.906c-2.699,0-4.478,0-6.257,0c-16.669,0-33.337,0.018-50.005-0.021c-1.967-0.005-3.979-0.088-5.886-0.513
	c-3.735-0.83-5.647-3.475-5.481-7.173c0.164-3.676,2.249-6.158,6.045-6.724c1.782-0.267,3.618-0.242,5.43-0.243
	c21.124-0.016,42.251-0.092,63.373,0.058c4.255,0.029,6.116-1.277,6.705-5.716c2.581-19.446,5.546-38.842,8.301-58.267
	c9.053-63.821,18.069-127.647,27.113-191.471c1.113-7.856,1.151-7.854-7.017-7.854c-105.128,0-210.256,0-315.385,0
	c-1.156,0-2.313,0.04-3.466,0c-3.282-0.115-4.43,1.478-3.963,4.637c1.397,9.458,2.729,18.927,4.079,28.393
	c5.493,38.518,10.986,77.035,16.475,115.553c5.092,35.743,10.146,71.493,15.294,107.228c1.074,7.448,1.233,7.429,9.054,7.429
	c45.055,0.002,90.11-0.002,135.166,0.007c1.978,0.001,3.965,0,5.933,0.175c4.117,0.364,6.358,3.006,6.521,6.817
	c0.164,3.846-1.957,6.614-5.995,7.267c-2.102,0.338-4.263,0.401-6.397,0.402c-41.259,0.021-82.519,0.016-123.778,0.016
	c-1.921,0-3.842,0-5.571,0c-0.281,0.978-0.478,1.295-0.439,1.579c1.291,9.473,2.674,18.932,3.897,28.412
	c1.517,11.758,6.319,16.045,18.283,16.046c46.21,0.005,92.42,0.001,138.631,0.001c16.338,0,32.678,0.054,49.015-0.023
	c8.152-0.04,13.494-3.577,14.917-10.979C368.283,472.638,369.666,461.179,371.517,448.906z M109.398,47.637
	c3.75,0,6.846-0.023,9.941,0.004c5.772,0.052,11.565-0.152,17.308,0.295c4.607,0.359,7.048,3.457,6.686,7.603
	c-0.375,4.297-2.976,6.417-7.172,6.671c-1.645,0.1-3.299,0.075-4.949,0.077c-19.641,0.005-39.281-0.025-58.922,0.022
	c-6.066,0.015-7.587,1.577-7.628,7.645c-0.057,8.418-0.02,16.836-0.016,25.253c0.005,9.32,0.474,9.791,9.811,9.791
	c88.465,0,176.931,0,265.396,0c33.176,0,66.35,0.006,99.525-0.005c7.502-0.003,8.509-1.025,8.535-8.634
	c0.029-8.088,0.015-16.175,0.005-24.263c-0.011-8.924-0.908-9.807-10-9.807c-87.311-0.002-174.62,0-261.931-0.007
	c-1.979,0-3.973,0.043-5.932-0.18c-3.814-0.435-5.995-2.776-6.234-6.511c-0.251-3.938,1.616-6.713,5.655-7.47
	c2.086-0.392,4.256-0.466,6.388-0.467c73.446-0.022,146.892-0.018,220.34-0.018c2.094,0,4.19,0,6.844,0
	c-1.863-9.233-3.743-17.724-5.23-26.284c-0.668-3.831-2.318-4.969-6.212-4.951c-35.32,0.158-70.64,0.093-105.96,0.093
	c-54.961,0-109.922,0.005-164.883-0.018c-2.719,0-5.093-0.274-5.768,3.548C113.421,28.936,111.427,37.771,109.398,47.637z
	 M94.284,119.963c1.753,12.321,3.451,24.249,5.168,36.311c2.721,0,4.692,0,6.663,0c99.464,0,198.93,0,298.396,0
	c8.431,0,8.533,0.015,9.773-8.266c1.383-9.22,2.554-18.473,3.863-28.045C309.929,119.963,202.464,119.963,94.284,119.963z"/>
<path fill-rule="evenodd" clip-rule="evenodd" fill="#F27337" d="M235.091,292.563c7.113-14.668,14.226-29.338,21.733-44.82
	c7.528,15.538,14.649,30.233,21.771,44.931c0.473-0.054,0.943-0.106,1.417-0.159c1.692-4.207,3.443-8.391,5.064-12.626
	c3.474-9.076,6.973-18.146,10.26-27.29c1.067-2.971,2.723-4.104,5.855-3.934c4.245,0.233,8.514,0.058,13.638,0.058
	c-11.214,28.84-22.165,57.006-33.519,86.202c-8.205-16.945-15.966-32.973-23.727-49.001c-0.495-0.016-0.99-0.03-1.485-0.045
	c-7.833,16.016-15.666,32.031-23.968,49.009c-11.11-28.808-21.907-56.798-33.134-85.906c6.193,0,11.688-0.231,17.131,0.202
	c1.039,0.083,2.141,2.683,2.752,4.297c4.314,11.398,8.497,22.849,12.754,34.27c0.599,1.605,1.373,3.146,2.066,4.718
	C234.163,292.498,234.627,292.531,235.091,292.563z"/>
<path fill-rule="evenodd" clip-rule="evenodd" fill="#F27337" d="M156.507,300.465c0-10.559,0.016-21.115-0.006-31.673
	c-0.013-6.334-0.268-6.575-6.767-6.643c-4.124-0.043-8.248-0.033-12.372-0.042c-4.795-0.009-3.837-3.599-3.839-6.397
	c-0.002-2.804-0.936-6.409,3.837-6.413c17.815-0.013,35.631,0.003,53.446-0.016c2.744-0.002,3.855,1.371,3.755,4.008
	c-0.063,1.647-0.064,3.3-0.002,4.948c0.103,2.714-1.181,3.91-3.863,3.889c-4.453-0.036-8.913,0.159-13.359-0.014
	c-4.251-0.165-5.74,1.567-5.708,5.852c0.16,21.114,0.074,42.229,0.067,63.345c-0.002,6.592-0.013,6.619-6.468,6.604
	c-9.862-0.024-8.711,0.829-8.753-8.746c-0.041-9.568-0.008-19.135-0.008-28.702C156.48,300.465,156.494,300.465,156.507,300.465z"/>
<path fill-rule="evenodd" clip-rule="evenodd" fill="#F27337" d="M341.689,300.284c0-10.887-0.135-21.776,0.069-32.661
	c0.079-4.151-1.607-5.617-5.535-5.499c-4.449,0.133-8.907-0.086-13.358,0.018c-4.672,0.109-4.281-3.138-4.169-6.115
	c0.108-2.923-1.104-6.747,4.032-6.745c17.649,0.011,35.3,0.021,52.95-0.02c2.944-0.006,3.975,1.314,4.116,4.205
	c0.413,8.459,0.317,8.666-8.05,8.674c-14.858,0.014-14.858,0.014-14.858,14.912c0,18.31-0.119,36.622,0.086,54.931
	c0.049,4.385-0.987,6.202-5.75,6.031c-10.982-0.394-9.48,0.982-9.555-9.522c-0.065-9.402-0.014-18.806-0.014-28.208
	C341.666,300.284,341.678,300.284,341.689,300.284z"/>
</svg>
