<?xml version="1.0" encoding="utf-8"?>
<!-- Generator: Adobe Illustrator 16.0.0, SVG Export Plug-In . SVG Version: 6.00 Build 0)  -->
<!DOCTYPE svg PUBLIC "-//W3C//DTD SVG 1.1//EN" "http://www.w3.org/Graphics/SVG/1.1/DTD/svg11.dtd">
<svg version="1.1" id="Layer_1" xmlns="http://www.w3.org/2000/svg" xmlns:xlink="http://www.w3.org/1999/xlink" x="0px" y="0px"
	 width="512px" height="512px" viewBox="0 0 512 512" enable-background="new 0 0 512 512" xml:space="preserve">
<g>
	<path fill-rule="evenodd" clip-rule="evenodd" fill="#FFFFFF" d="M269.066,0c6.839,1.263,13.735,2.273,20.508,3.829
		c59.091,13.583,103.52,63.017,110.673,123.001c9.167,76.879-42.796,146.562-119.289,159.964
		c-77.312,13.546-152.935-39.972-166-117.655c-6.355-37.784,0.947-72.833,22.092-104.873c1.244-1.884,2.947-4.407,4.779-4.735
		c2.6-0.466,6.403-0.046,8.047,1.618c1.636,1.655,1.605,5.322,1.582,8.102c-0.012,1.419-1.579,2.844-2.49,4.234
		c-31.099,47.426-27.701,109.522,8.559,153.175c45.054,54.237,122.563,61.685,176.016,21.692
		c42.198-31.572,61.526-81.861,49.069-134.398c-12.002-50.622-53.743-89.029-104.705-97.065
		c-36.387-5.738-69.381,2.574-99.01,24.471c-2.061,1.522-4.856,3.431-6.994,3.104c-2.484-0.38-5.438-2.565-6.718-4.805
		c-1.975-3.455-0.069-6.662,3.009-9.061c14.341-11.174,30.092-19.743,47.639-24.529c9.582-2.613,19.476-4.083,29.229-6.069
		C253.063,0,261.065,0,269.066,0z"/>
	<path fill-rule="evenodd" clip-rule="evenodd" fill="#FFFFFF" d="M97.038,512.085c-3.74-1.29-7.61-2.295-11.198-3.922
		c-18.057-8.181-27.673-27.333-23.777-47.001c3.701-18.682,20.277-32.529,39.822-33.254c1.998-0.075,3.999-0.083,5.999-0.083
		c75.838-0.004,151.677-0.004,227.516,0c1.834,0,3.674-0.058,5.496,0.091c4.305,0.349,6.772,2.886,7.026,7.048
		c0.244,3.986-2.009,6.684-5.878,7.579c-2.07,0.481-4.296,0.393-6.453,0.393c-77.007,0.016-154.01,0.004-231.017,0.023
		c-13.704,0.004-24.483,8.003-27.49,20.237c-4.054,16.499,7.419,32.37,24.411,33.747c1.161,0.093,2.332,0.097,3.497,0.097
		c101.342,0.006,202.682,0.02,304.021-0.012c14.961-0.005,25.745-8.606,28.364-22.338c3.037-15.926-9.036-31.247-25.217-31.66
		c-10.493-0.269-21.001-0.03-31.5-0.116c-1.964-0.02-4.602,0.179-5.738-0.936c-2.042-2.002-4.558-5.064-4.312-7.417
		c0.246-2.355,3.582-6.211,5.643-6.26c14.299-0.351,28.828-1.352,42.879,0.676c19.967,2.88,33.736,20.762,33.891,40.615
		c0.153,19.788-13.521,36.87-33.203,41.505c-0.936,0.219-1.819,0.652-2.729,0.987C310.406,512.085,203.722,512.085,97.038,512.085z"
		/>
	<path fill-rule="evenodd" clip-rule="evenodd" fill="#FFFFFF" d="M257.571,310.616c50.17,0,100.34-0.037,150.508,0.021
		c20.051,0.021,35.21,9.729,41.909,26.549c10.711,26.901-8.37,56.348-37.426,57.744c-1.165,0.057-2.332,0.057-3.498,0.057
		c-101.341,0.002-202.68,0.022-304.02-0.012c-24.676-0.01-43.695-18.151-43.938-41.706c-0.231-22.373,17.112-41.37,39.466-42.327
		c15.474-0.664,30.993-0.303,46.492-0.317C183.9,310.597,220.736,310.616,257.571,310.616z M257.064,325.804
		c-37.506,0-75.011-0.004-112.517,0.004c-14.169,0.002-28.342-0.199-42.504,0.114c-13.448,0.298-23.985,10.452-25.716,24.108
		c-1.571,12.399,6.92,25.245,19.344,28.611c3.794,1.03,7.9,1.243,11.864,1.247c99.681,0.064,199.361,0.051,299.041,0.047
		c1.834,0,3.674,0.045,5.499-0.091c17.44-1.296,29.053-17.005,24.97-33.734c-3.03-12.414-13.774-20.285-27.961-20.293
		C358.413,325.788,307.737,325.808,257.064,325.804z"/>
	<path fill-rule="evenodd" clip-rule="evenodd" fill="#F27337" d="M312.037,193.263c20.703,16.16,28.995,25.187,36.106,39.444
		c-3.661,3.22-7.448,6.552-11.491,10.109c-7.98-15.756-19.095-28.234-34.353-37.418c-12.688,11.354-27.385,17.915-44.711,17.904
		c-17.341-0.011-32.118-6.308-45.081-18.248c-15.398,8.936-26.748,21.565-34.938,37.605c-3.921-3.387-7.734-6.682-11.659-10.074
		c8.768-16.497,21.074-29.298,35.637-38.672c-2.752-9.355-6.897-18.067-7.626-27.056c-1.49-18.36-2.958-37.03,1.131-55.229
		c6.821-30.36,36.436-51.904,66.451-49.216c33.444,2.995,58.893,28.489,60.331,61.027c0.574,12.971,0.376,25.997-0.019,38.979
		C321.479,173.412,317.953,183.635,312.037,193.263z M208.368,148.77c-1.81,22.389,4.423,40.705,23.893,52.32
		c17.611,10.507,35.775,9.948,52.791-1.427c17.876-11.949,23.393-29.754,21.598-50.84c-17.887-1.438-35.134-4.592-49.145-17.073
		C243.418,144.206,226.353,147.409,208.368,148.77z M306.231,133.453c3.4-17.417-6.027-37.764-21.929-48.104
		c-16.68-10.847-38.855-10.442-55.033,1.005c-15.223,10.772-24.195,31.281-20.355,47.107c15.422-1.282,30.335-3.515,41.423-16.27
		c4.287-4.93,10.546-4.377,15.226,0.848C276.534,130.282,291.185,132.241,306.231,133.453z"/>
</g>
</svg>
