<?xml version="1.0" encoding="utf-8"?>
<!-- Generator: Adobe Illustrator 16.0.0, SVG Export Plug-In . SVG Version: 6.00 Build 0)  -->
<!DOCTYPE svg PUBLIC "-//W3C//DTD SVG 1.1//EN" "http://www.w3.org/Graphics/SVG/1.1/DTD/svg11.dtd">
<svg version="1.1" id="Layer_1" xmlns="http://www.w3.org/2000/svg" xmlns:xlink="http://www.w3.org/1999/xlink" x="0px" y="0px"
	 width="512px" height="512px" viewBox="0 0 512 512" enable-background="new 0 0 512 512" xml:space="preserve">
<g>
	<path fill="#FFFFFF" d="M402.95-0.03c6.537,3.563,9.388,9.395,10.645,16.479c1.509,8.515,3.575,16.93,5.104,25.443
		c0.501,2.789,1.728,3.531,4.31,3.486c6.497-0.111,12.997-0.125,19.491-0.008c13.842,0.25,21.609,7.987,21.804,21.81
		c0.137,9.662,0.123,19.328,0.005,28.99c-0.171,14.201-7.893,21.787-22.078,21.898c-7.451,0.06-7.502,0.053-8.613,7.528
		c-1.42,9.549-2.873,19.096-4.005,28.68c-0.189,1.585,0.712,3.89,1.914,4.944c4.964,4.354,6.998,9.769,6.113,16.087
		c-4.983,35.604-10.112,71.188-15.188,106.778c-5.522,38.723-11.044,77.441-16.56,116.164c-1.712,12.029-3.306,24.076-5.142,36.087
		c-1.016,6.643-4.391,11.656-10.714,14.657c-1.419,0.674-2.771,2.77-3.035,4.393c-1.824,11.168-3.159,22.418-5.025,33.578
		c-2.492,14.911-13.646,24.762-28.723,24.797c-64.813,0.15-129.629,0.151-194.443,0.001c-15.268-0.036-26.454-10.142-28.842-25.269
		c-1.738-11.017-3.15-22.082-4.956-33.087c-0.267-1.623-1.567-3.741-2.969-4.399c-6.739-3.165-9.931-8.604-10.927-15.618
		c-10.768-75.802-21.506-151.605-32.264-227.41c-1.426-10.052-2.934-20.092-4.352-30.146c-0.925-6.563,0.926-12.067,5.996-16.588
		c1.209-1.077,2.165-3.36,1.975-4.937c-1.308-10.904-3.024-21.759-4.435-32.652c-0.352-2.714-1.473-3.528-4.16-3.645
		c-21.304-0.918-26.098-5.99-26.098-27.271c0-7.999-0.086-15.997,0.026-23.994c0.185-13.231,7.849-20.992,21.162-21.363
		c6.493-0.182,12.998-0.15,19.491,0.009c2.957,0.072,4.414-0.646,4.978-3.915C94.876,33.12,97,24.883,98.469,16.53
		c1.246-7.07,4.046-12.916,10.511-16.561C206.971-0.03,304.961-0.03,402.95-0.03z M372.448,450.496c-2.884,0-4.69,0-6.495,0
		c-16.831,0-33.66,0.021-50.491-0.029c-2.146-0.006-4.905,0.368-6.296-0.767c-2.189-1.781-4.854-4.776-4.716-7.104
		c0.136-2.314,3.185-4.864,5.524-6.49c1.389-0.966,3.877-0.42,5.873-0.422c21.327-0.021,42.657-0.071,63.986,0.036
		c3.956,0.021,5.968-0.967,6.569-5.396c3.657-26.884,7.662-53.72,11.476-80.582c8.145-57.353,16.235-114.71,24.369-172.063
		c1.105-7.798,1.165-7.793-6.749-7.794c-106.312,0-212.625,0-318.937,0c-1,0-2.002,0.049-2.999-0.005
		c-3.462-0.188-4.887,1.276-4.349,4.824c1.445,9.545,2.771,19.109,4.135,28.666c5.526,38.725,11.05,77.449,16.575,116.175
		c5.194,36.417,10.521,72.817,15.447,109.271c0.764,5.652,2.96,6.984,8.304,6.963c45.824-0.188,91.648-0.11,137.474-0.098
		c2.162,0,4.354-0.036,6.479,0.276c3.883,0.568,6.349,3.431,5.798,6.87c-0.41,2.571-2.885,5.305-5.178,6.916
		c-1.639,1.151-4.5,0.727-6.814,0.728c-41.826,0.033-83.65,0.024-125.477,0.024c-1.927,0-3.854,0-6.218,0
		c1.48,10.52,2.946,20.205,4.184,29.92c1.559,12.245,6.307,16.563,18.64,16.563c62.321,0.004,124.642,0.006,186.963-0.01
		c1.992-0.002,4.021,0.021,5.975-0.312c5.765-0.979,10.146-4.214,11.232-9.952C368.954,474.976,370.499,463.119,372.448,450.496z
		 M107.737,45.343c4.714,0,8.682-0.043,12.647,0.011c5.156,0.069,10.339-0.071,15.458,0.421c4.273,0.409,6.465,3.325,6.148,7.64
		c-0.3,4.075-2.787,6.252-6.814,6.602c-1.655,0.144-3.329,0.115-4.994,0.116c-19.998,0.007-39.995-0.024-59.992,0.026
		c-5.93,0.015-7.552,1.589-7.599,7.313c-0.077,9.498-0.076,18.998-0.002,28.496c0.046,6.045,1.305,7.227,7.478,7.279
		c6.166,0.053,12.332,0.013,18.498,0.013c117.318,0,234.636,0.001,351.953-0.003c8.02,0,8.999-0.957,9.025-8.814
		c0.028-7.999,0.012-15.997,0.006-23.997c-0.008-9.497-0.805-10.308-10.189-10.308c-88.155-0.001-176.312,0-264.465-0.01
		c-2.164,0-4.363,0.081-6.479-0.273c-3.585-0.602-5.53-3.038-5.736-6.57c-0.205-3.507,1.336-6.299,4.863-7.217
		c2.373-0.617,4.937-0.696,7.414-0.697c74.157-0.034,148.313-0.028,222.472-0.028c2.109,0,4.22,0,6.869,0
		c-1.842-8.892-3.863-16.961-5.081-25.151c-0.729-4.918-2.521-6.428-7.616-6.418c-90.32,0.174-180.643,0.125-270.963,0.125
		c-1,0-2.188-0.343-2.959,0.078c-1.482,0.808-3.617,1.838-3.93,3.146C111.582,26.167,109.82,35.307,107.737,45.343z M97.679,155.032
		c2.562,0,4.701,0,6.841,0c98.596,0,197.192,0,295.788,0c3.498,0,7.002-0.14,10.49,0.043c2.673,0.139,3.912-0.723,4.188-3.521
		c0.452-4.632,1.294-9.225,1.916-13.841c0.854-6.349,1.658-12.705,2.521-19.32c-109.268,0-217.771,0-326.921,0
		C94.248,130.757,95.938,142.717,97.679,155.032z"/>
	<path fill="#F27337" d="M271.953,225.907c35.998-0.631,60.774,29.094,54.765,66.05c-6.195,38.095-36.551,69.299-74.822,76.182
		c-30.801,5.538-57.235-9.658-65.156-37.453c-6.07-21.303-1.148-41.291,10.286-59.617c14.776-23.685,35.602-39.199,63.517-44.198
		C264.284,226.199,268.146,226.211,271.953,225.907z M294.449,245.123c-10.78-6.251-21.301-6.765-31.844-4.999
		c-22.259,3.727-39.003,16.318-51.74,34.394c-9.887,14.032-14.901,29.611-12.276,47.008c0.995,6.591,3.086,12.771,8.096,18.283
		c6.459-4.643,12.891-8.799,18.792-13.603c12.835-10.447,25.317-21.378,30.714-37.81c5.229-15.93,15.78-27.498,29.052-37.007
		C287.918,249.474,290.684,247.682,294.449,245.123z M217.359,349.236c9.28,6.449,23.75,8.043,37.37,4.595
		c31.677-8.021,57.011-37.544,59.435-69.945c0.675-9.018-1.059-17.952-6.188-25.735c-0.817-1.24-3.618-2.643-4.499-2.155
		c-14.043,7.772-27.263,17.001-32.772,32.778c-6.706,19.209-19.125,33.631-34.475,46.063
		C230.199,339.721,223.895,344.266,217.359,349.236z"/>
</g>
</svg>
