<?xml version="1.0" encoding="utf-8"?>
<!-- Generator: Adobe Illustrator 16.0.0, SVG Export Plug-In . SVG Version: 6.00 Build 0)  -->
<!DOCTYPE svg PUBLIC "-//W3C//DTD SVG 1.1//EN" "http://www.w3.org/Graphics/SVG/1.1/DTD/svg11.dtd">
<svg version="1.1" id="Layer_1" xmlns="http://www.w3.org/2000/svg" xmlns:xlink="http://www.w3.org/1999/xlink" x="0px" y="0px"
	 width="512px" height="512px" viewBox="0 0 512 512" enable-background="new 0 0 512 512" xml:space="preserve">
<g>
	<path fill-rule="evenodd" clip-rule="evenodd" fill="#0B2333" d="M115.995,2.011c23.122,16.008,32.419,53.765,19.293,80.66
		c-3.568,7.312-8.557,14.065-13.685,20.44c-5.21,6.478-11.033,6.175-16.84,0.225c-25.593-26.225-26.681-63.43-2.62-93.398
		c2.322-2.893,5.255-5.297,7.906-7.928C112.031,2.011,114.012,2.011,115.995,2.011z M113.174,81.842
		c11.793-15.532,11.633-40.089-0.141-52.723C101.586,43.57,101.525,66.498,113.174,81.842z"/>
	<path fill-rule="evenodd" clip-rule="evenodd" fill="#0B2333" d="M252.763,509.441c-3.737-1.966-6.981-4.317-7.374-9.033
		c-0.382-4.588,2.39-8.697,6.906-10.145c4.293-1.373,9.118,0.614,11.313,4.657c2.157,3.969,1.211,9.147-2.288,12.057
		c-1.113,0.926-2.396,1.648-3.603,2.464C256.066,509.441,254.415,509.441,252.763,509.441z"/>
	<path fill-rule="evenodd" clip-rule="evenodd" fill="#0B2333" d="M375.586,163.59c-3.608,9.67-6.23,18.173-9.899,26.198
		c-6.505,14.229-20.707,21.498-35.705,19.041c-15.94-2.612-26.517-13.71-28.604-29.755c-5.473-42.074-21.893-79.565-47.596-113.137
		c-0.593-0.773-1.295-1.464-2.622-2.952c-0.472,5.735-0.5,10.752-1.354,15.624c-2.761,15.721-5.051,31.583-8.967,47.026
		c-5.031,19.84-18.43,32.006-38.86,34.482c-19.797,2.399-35.446-5.403-46.041-22.627c-0.241-0.392-0.611-0.705-1.81-2.057
		c-9.644,10.148-19.77,19.645-28.554,30.253c-32.81,39.623-51.653,85.321-53.63,136.702
		c-3.242,84.229,49.871,156.368,127.575,179.395c3.948,1.17,7.967,2.102,11.958,3.129c6.766,1.741,10.343,6.416,9.109,11.923
		c-1.351,6.027-6.521,8.868-13.488,7.271c-24.705-5.666-47.781-15.25-68.553-29.807c-48.475-33.975-76.614-80.654-84.678-139.106
		c-5.939-43.056,2.606-84.129,20.086-123.479c17.575-39.566,43.934-72.327,78.164-98.78c8.639-6.676,15.686-4.071,18.044,6.584
		c2.813,12.705,11.715,20.656,23.884,21.328c13.494,0.746,23.566-6.161,27.754-19.178c7.777-24.174,9.947-49.069,9.414-74.302
		c-0.069-3.302-0.123-6.604-0.203-9.907c-0.112-4.593,1.75-8.01,6.038-9.851c4.127-1.77,8.037-0.891,10.865,2.332
		c9.568,10.902,19.703,21.434,28.166,33.156c24.595,34.062,39.424,72.185,44.917,113.896c0.933,7.082,5.032,11.298,11.547,12.328
		c6.968,1.102,12.26-1.529,15.537-7.875c5.479-10.608,8.334-22.024,8.188-33.844c-0.128-10.208,8.979-15.283,18.079-8.801
		c32.031,22.816,55.199,52.571,68.813,89.239c22.154,59.67,21.258,118.912-8.513,175.915
		c-28.176,53.947-73.23,86.821-132.443,100.386c-8.661,1.985-14.688-2.594-13.822-10.254c0.586-5.178,3.964-7.613,8.792-8.67
		c17.83-3.899,34.937-9.855,50.779-18.982c46.75-26.935,76.126-67.047,86.406-119.761c11.331-58.098,0.219-111.924-36.801-159.185
		C390.993,179.106,383.137,171.739,375.586,163.59z"/>
	<path fill-rule="evenodd" clip-rule="evenodd" fill="#0B2333" d="M459.398,85.254c-0.49,21.982-9.732,41.368-25.394,57.912
		c-5.146,5.436-10.818,5.12-16.281-0.779c-27.852-30.081-34.15-70.596-8.057-107.781c2.838-4.046,5.916-7.962,9.222-11.633
		c4.092-4.542,10.395-4.748,14.442-0.28C448.529,39.473,459.445,60.206,459.398,85.254z M426.112,121.362
		c18.272-21.915,18.11-54.601-0.186-75.357C408.478,67.69,408.445,100.007,426.112,121.362z"/>
	<path fill-rule="evenodd" clip-rule="evenodd" fill="#F27337" d="M220.208,265.83c-0.034-22.518,17.642-40.396,39.966-40.426
		c22.611-0.031,40.73,17.907,40.732,40.323c0.004,22.446-17.674,40.199-40.127,40.296
		C237.885,306.123,220.242,288.643,220.208,265.83z M238.444,265.729c-0.006,12.449,9.445,22.079,21.734,22.146
		c12.403,0.067,22.586-9.861,22.637-22.07c0.051-12.016-10.463-22.43-22.553-22.338
		C248.149,243.558,238.451,253.455,238.444,265.729z"/>
	<path fill-rule="evenodd" clip-rule="evenodd" fill="#F27337" d="M124.375,369.49c-0.001-9.232-0.058-18.464,0.017-27.693
		c0.06-7.434,3.881-11.238,11.319-11.276c6.259-0.03,12.591-0.46,18.765,0.303c15.786,1.948,24.894,11.567,28.661,26.647
		c3.442,13.777,1.789,26.833-6.263,38.691c-4.83,7.114-11.61,11.875-20.272,12.77c-7.666,0.791-15.435,0.979-23.145,0.813
		c-5.541-0.119-8.988-4.89-9.056-11.572C124.303,388.612,124.375,379.05,124.375,369.49z M142.759,370.313
		c0.176-0.002,0.352-0.002,0.528-0.002c0,5.774,0.084,11.552-0.038,17.323c-0.057,2.682,0.903,3.838,3.657,4.032
		c9.467,0.664,15.938-3.208,17.954-12.575c1.21-5.622,1.276-11.875,0.183-17.521c-1.856-9.58-7.791-13.239-17.601-12.918
		c-3.419,0.112-4.737,1.561-4.701,4.817C142.805,359.082,142.759,364.696,142.759,370.313z"/>
	<path fill-rule="evenodd" clip-rule="evenodd" fill="#F27337" d="M160.135,274.163c0,7.282,0.088,13.997-0.024,20.707
		c-0.125,7.493-3.875,11.425-10.222,11.1c-3.729-0.191-6.325-2.039-7.456-5.464c-0.76-2.302-1.137-4.832-1.149-7.264
		c-0.092-18.313-0.078-36.626-0.013-54.94c0.008-2.113,0.294-4.289,0.857-6.322c1.136-4.096,3.994-6.396,8.268-6.525
		c4.508-0.135,8.062,2.069,8.736,6.43c0.9,5.811,1.118,11.803,0.881,17.687c-0.196,4.824,1.465,6.475,6.14,6.184
		c4.602-0.288,9.236-0.134,13.854-0.062c3.396,0.054,5.125-1.044,4.888-4.88c-0.304-4.931-0.149-9.896-0.049-14.843
		c0.133-6.539,3.73-10.538,9.307-10.546c5.428-0.009,8.835,3.708,8.864,10.223c0.087,20.128,0.092,40.257-0.005,60.386
		c-0.032,6.723-3.174,9.991-8.96,9.94c-5.457-0.048-9.082-3.897-9.2-10.04c-0.118-6.102,0.088-12.213-0.154-18.309
		c-0.047-1.183-1.468-3.278-2.316-3.311C175.186,274.05,167.976,274.163,160.135,274.163z"/>
	<path fill-rule="evenodd" clip-rule="evenodd" fill="#F27337" d="M262.95,400.521c0.156-0.614,0.433-2.414,1.062-4.082
		c7.277-19.264,14.661-38.485,21.888-57.767c1.899-5.072,4.969-8.637,10.544-9.06c4.717-0.357,8.657,3.181,10.919,9.176
		c7.211,19.11,14.508,38.189,21.512,57.374c0.991,2.715,1.616,6.489,0.465,8.807c-1.259,2.53-4.672,5.242-7.345,5.464
		c-2.654,0.22-5.57-2.533-8.332-4.055c-0.367-0.203-0.651-0.814-0.713-1.271c-1.381-10.295-8.533-10.907-16.633-9.961
		c-0.324,0.037-0.665,0.048-0.986-0.003c-7.767-1.209-13.15,0.685-15.181,9.441c-1.101,4.751-6.194,7.1-10.049,5.981
		C265.743,409.306,262.905,406.628,262.95,400.521z M297.442,364.493c-0.549-0.044-1.097-0.088-1.646-0.132
		c-1.444,3.93-2.89,7.861-4.458,12.129c4.037,0,6.959,0,10.626,0C300.268,371.99,298.854,368.24,297.442,364.493z"/>
	<path fill-rule="evenodd" clip-rule="evenodd" fill="#F27337" d="M201.597,370.162c-0.002-9.902-0.045-19.806,0.013-29.709
		c0.041-6.888,3.026-10.077,9.845-10.206c8.249-0.157,16.506-0.164,24.755,0.021c6.329,0.14,9.445,3.345,9.354,9.036
		c-0.084,5.263-3.834,8.891-9.649,9.103c-3.956,0.144-7.927,0.171-11.881-0.004c-3.132-0.137-4.665,0.942-4.397,4.225
		c0.133,1.641-0.429,3.499,0.171,4.894c0.619,1.439,2.157,3.289,3.486,3.462c3.735,0.483,7.574,0.102,11.366,0.234
		c5.535,0.194,8.997,3.763,8.979,9.062c-0.018,5.28-3.479,8.73-9.09,8.919c-3.133,0.105-6.301,0.31-9.401-0.022
		c-5.58-0.599-5.515,2.772-5.587,6.77c-0.076,4.114,0.537,6.683,5.596,6.093c3.582-0.418,7.264-0.248,10.881-0.021
		c5.948,0.376,9.494,3.956,9.522,9.266c0.029,5.634-3.032,8.778-9.479,8.95c-8.41,0.225-16.837,0.228-25.246-0.033
		c-6.221-0.192-9.171-3.522-9.218-9.832C201.543,390.299,201.598,380.23,201.597,370.162z"/>
	<path fill-rule="evenodd" clip-rule="evenodd" fill="#F27337" d="M330.52,272.662c-0.001-7.755-0.208-15.519,0.084-23.262
		c0.151-4.033-1.365-5.393-5.143-4.997c-1.304,0.137-2.651,0.101-3.955-0.052c-4.452-0.522-7.757-4.25-7.852-8.745
		c-0.099-4.711,3.266-9.006,7.939-9.095c12.205-0.232,24.42-0.221,36.627-0.018c4.773,0.079,8.101,4.131,8.099,8.917
		c-0.004,4.775-3.347,8.474-8.113,8.974c-8.817,0.924-8.817,0.924-8.817,9.682c0,13.036,0.041,26.071-0.039,39.105
		c-0.016,2.449-0.297,4.946-0.844,7.333c-0.912,3.976-3.539,6.161-7.693,6.453c-4.495,0.315-7.792-1.414-9.264-5.74
		c-0.674-1.98-0.951-4.176-0.984-6.28C330.451,287.514,330.521,280.087,330.52,272.662z"/>
	<path fill-rule="evenodd" clip-rule="evenodd" fill="#F27337" d="M347.306,370.303c-0.003-10.058-0.044-20.116,0.013-30.176
		c0.033-6.214,3.579-10.378,8.799-10.54c5.187-0.164,9.196,4.396,9.215,10.681c0.044,15.501,0.173,31.005-0.076,46.501
		c-0.074,4.622,1.538,6.337,5.984,5.945c2.127-0.188,4.287-0.136,6.426-0.047c5.703,0.233,9.082,3.126,9.481,8.01
		c0.428,5.227-2.575,9.563-8.097,9.924c-7.875,0.514-15.834,0.502-23.709-0.034c-5.252-0.357-7.96-4.123-8.008-9.592
		C347.245,390.752,347.31,380.527,347.306,370.303z"/>
</g>
</svg>
